<svg id="ARCASACRA" xmlns="http://www.w3.org/2000/svg" viewBox="0 0 416.27 379.73"><g id="ARCASACRA-2" data-name="ARCASACRA"><path d="M216.71,532.09a203.392,203.392,0,0,0,26.56-6.96,117.446,117.446,0,0,1-12.76-200.6c-1.05-.91-2.1-1.86-3.13-2.87a41.8,41.8,0,0,1-7.9-10.38,18.868,18.868,0,0,1-1.25-2.56,137.39,137.39,0,0,0-1.52,223.37Z" transform="translate(-89.51 -180.32)"/><path d="M433.38,443.05a186.524,186.524,0,0,0-18.26-18.82A117.531,117.531,0,0,1,278.61,536.94a210.974,210.974,0,0,1-28.64,13.02,136.792,136.792,0,0,0,47.66,8.53C365.94,558.49,422.77,508.42,433.38,443.05Z" transform="translate(-89.51 -180.32)"/><path d="M410.77,389.08a224.781,224.781,0,0,1,23.56,16.73c-7.56-68.74-65.98-122.4-136.7-122.4a136.6,136.6,0,0,0-55.36,11.66,8.976,8.976,0,0,0,.55,1.48,23.194,23.194,0,0,0,4.16,5.63,70.421,70.421,0,0,0,10.17,8.43,117.548,117.548,0,0,1,153.62,78.47Z" transform="translate(-89.51 -180.32)"/><path d="M362.35,399.34c-4.33,18.75-12.83,37.57-21.33,51.81a178.676,178.676,0,0,1-39.74,45.92c.08.07.17.14.25.21,3.95,3.07,7.79,5.81,11.43,8.24.47.29.93.57,1.32.8,14.03-12.49,28.52-29.99,41.12-50.92a206.531,206.531,0,0,0,21.88-52.61c.47-1.82,1.41-5.68,1.8-7.51.74-3.48-.76-8.72-3.69-13.14-2.49-3.74-7.27-6.51-10.24-8.85a142.251,142.251,0,0,0-18.08-11.57c-20.5-11.32-51.68-24.74-72.28-35.76-5.78-3.06-11.43-6.28-16.73-9.73a81.642,81.642,0,0,1-14.09-11.08,22.82,22.82,0,0,1-4.16-5.63,6.13,6.13,0,0,1-.44-5.01,170.278,170.278,0,0,1,24.15-45.22c17.14-23.14,34.3-35.16,34.3-35.16s17.97,13.01,35.49,36.99a177.326,177.326,0,0,1,22.1,40.66,136.933,136.933,0,0,1,23.72,13.29,227.237,227.237,0,0,0-23.47-60.5c-23.84-41.96-57.84-64.25-57.84-64.25s-6.36,4.79-8.1,6.21c-31.67,25.78-53.27,57.72-66.45,94.59-3.11,8.71-5.77,18.76-.81,27.14a41.986,41.986,0,0,0,7.9,10.38,79.138,79.138,0,0,0,8.76,7.36c2.97,2.17,5.98,4.15,9,6,34.31,21.18,73.64,31.97,106.53,54.74,2.3,1.79,4.6,3.57,5.77,5.46C361.85,394.46,362.77,397.54,362.35,399.34Z" transform="translate(-89.51 -180.32)"/><path d="M318.63,533.02c.24-.05.49-.1.73-.16,1.3-.29,4.15-.95,7.02-1.73,1.5-.42,2.99-.88,4.46-1.36a120.571,120.571,0,0,0,11.42-4.42s-50.56-17.16-84.36-69.02c-27.19-41.72-29.04-84.03-29.04-84.03a181.344,181.344,0,0,0-22.43,9.26c-8.31,4.04-15.55,8.31-18.93,10.38a116.833,116.833,0,0,0-4.16,24.09c2.05-1.64,9.52-7.53,16.45-11.91,8.23-5.2,16.64-9.44,16.64-9.44a211.475,211.475,0,0,0,23.39,60.31C269.77,507.02,318.4,532.89,318.63,533.02Z" transform="translate(-89.51 -180.32)"/><path d="M281.35,511.39c-5.98,3.99-32.25,20.12-74.02,25.72-48.43,6.5-88.58-11.4-88.58-11.4a174.871,174.871,0,0,1,16.17-49.05,193.409,193.409,0,0,1,23.21-35.82,138.675,138.675,0,0,1-1.03-16.9c0-3.23.12-6.44.34-9.61-7.32,6.51-25.12,23.79-41.56,50.97-20.33,33.6-26.37,77.02-26.37,77.02s39.19,19.73,94,17.51c60.54-2.77,103.21-32.21,111-37.78C290.44,519,286,515.45,281.35,511.39Z" transform="translate(-89.51 -180.32)"/><path d="M382.26,396.39c8.27,4.26,48.71,26.82,74.37,73a186.582,186.582,0,0,1,19.67,56.25,167.142,167.142,0,0,1-50.74,11.88,188.026,188.026,0,0,1-41.48-1.02q-1.92-.27-3.69-.57a137.714,137.714,0,0,1-23.91,13.69c13.67,4.33,37.78,10.43,65.26,10.43,47.94,0,84.04-17.56,84.04-17.56s-2.58-50.08-44.8-103.71c-31.49-39.99-71.58-57.98-86.2-63.53a16.978,16.978,0,0,1,3.62,3.88C385.45,390.6,382.26,396.39,382.26,396.39Z" transform="translate(-89.51 -180.32)"/></g></svg>